<svg version="1.1" xmlns="http://www.w3.org/2000/svg" viewBox="0 0 654.5158899728219 233.1357044498888" width="1309.0317799456438" height="466.2714088997776">
  <!-- svg-source:excalidraw -->
  
  <defs>
    <style class="style-fonts">
      @font-face {
        font-family: "Virgil";
        src: url("https://excalidraw.com/Virgil.woff2");
      }
      @font-face {
        font-family: "Cascadia";
        src: url("https://excalidraw.com/Cascadia.woff2");
      }
    </style>
  </defs>
  <rect x="0" y="0" width="654.5158899728219" height="233.1357044498888" fill="#ffffff"></rect><g stroke-linecap="round" transform="translate(14.683615682499294 114.58509406346508) rotate(0 34.59595713157228 40.26936038642373)"><path d="M69.19 40.27 C69.19 42.37, 69.05 44.49, 68.77 46.57 C68.48 48.64, 68.06 50.72, 67.5 52.71 C66.94 54.71, 66.24 56.68, 65.42 58.55 C64.6 60.42, 63.65 62.24, 62.58 63.94 C61.52 65.64, 60.33 67.26, 59.06 68.74 C57.78 70.23, 56.39 71.61, 54.93 72.85 C53.47 74.08, 51.91 75.2, 50.3 76.15 C48.69 77.1, 47 77.92, 45.29 78.57 C43.57 79.22, 41.79 79.71, 40.01 80.04 C38.23 80.37, 36.4 80.54, 34.6 80.54 C32.79 80.54, 30.97 80.37, 29.18 80.04 C27.4 79.71, 25.62 79.22, 23.91 78.57 C22.19 77.92, 20.5 77.1, 18.89 76.15 C17.28 75.2, 15.72 74.08, 14.26 72.85 C12.8 71.61, 11.41 70.23, 10.13 68.74 C8.86 67.26, 7.67 65.64, 6.61 63.94 C5.55 62.24, 4.59 60.42, 3.77 58.55 C2.95 56.68, 2.25 54.71, 1.69 52.71 C1.14 50.72, 0.71 48.64, 0.43 46.57 C0.14 44.49, 0 42.37, 0 40.27 C0 38.17, 0.14 36.04, 0.43 33.97 C0.71 31.9, 1.14 29.82, 1.69 27.83 C2.25 25.83, 2.95 23.86, 3.77 21.99 C4.59 20.12, 5.55 18.3, 6.61 16.6 C7.67 14.9, 8.86 13.28, 10.13 11.79 C11.41 10.31, 12.8 8.93, 14.26 7.69 C15.72 6.46, 17.28 5.34, 18.89 4.39 C20.5 3.44, 22.19 2.62, 23.91 1.97 C25.62 1.32, 27.4 0.82, 29.18 0.5 C30.97 0.17, 32.79 0, 34.6 0 C36.4 0, 38.23 0.17, 40.01 0.5 C41.79 0.82, 43.57 1.32, 45.29 1.97 C47 2.62, 48.69 3.44, 50.3 4.39 C51.91 5.34, 53.47 6.46, 54.93 7.69 C56.39 8.93, 57.78 10.31, 59.06 11.79 C60.33 13.28, 61.52 14.9, 62.58 16.6 C63.65 18.3, 64.6 20.12, 65.42 21.99 C66.24 23.86, 66.94 25.83, 67.5 27.83 C68.06 29.82, 68.48 31.9, 68.77 33.97 C69.05 36.04, 69.12 39.22, 69.19 40.27 C69.26 41.32, 69.26 39.22, 69.19 40.27" stroke="transparent" stroke-width="1" fill="none"></path></g><g stroke-linecap="round"><g transform="translate(42.71130673440075 155.6701426764394) rotate(0 12.5297197094269 4.6694953095856135)" fill-rule="evenodd"><path d="M0 0 L0.11 9.42 L12.82 15.94 L24.56 7.62 L25.06 -1.49 L13.58 -6.6 L0 0" stroke="none" stroke-width="0" fill="#ced4da" fill-rule="evenodd"></path><path d="M0 0 C0.03 2.86, 0.07 5.71, 0.11 9.42 M0 0 C0.03 2.45, 0.06 4.9, 0.11 9.42 M0.11 9.42 C4.07 11.45, 8.02 13.48, 12.82 15.94 M0.11 9.42 C3.67 11.25, 7.23 13.07, 12.82 15.94 M12.82 15.94 C16.34 13.44, 19.86 10.95, 24.56 7.62 M12.82 15.94 C16.95 13.01, 21.09 10.08, 24.56 7.62 M24.56 7.62 C24.71 4.97, 24.85 2.31, 25.06 -1.49 M24.56 7.62 C24.72 4.77, 24.87 1.92, 25.06 -1.49 M25.06 -1.49 C22.24 -2.74, 19.43 -3.99, 13.58 -6.6 M25.06 -1.49 C21.55 -3.05, 18.04 -4.61, 13.58 -6.6 M13.58 -6.6 C9.94 -4.83, 6.29 -3.06, 0 0 M13.58 -6.6 C8.57 -4.16, 3.56 -1.73, 0 0 M0 0 C0 0, 0 0, 0 0 M0 0 C0 0, 0 0, 0 0" stroke="#495057" stroke-width="2" fill="none"></path></g></g><mask></mask><g stroke-linecap="round"><g transform="translate(38.764832170511 115.60723518056608) rotate(0 20.06309877077217 25.995496511056558)" fill-rule="evenodd"><path d="M0 0 L6.61 0.08 L15.81 1.57 L26.96 6.27 L36.57 12.77 L39.71 20.69 L39.89 35.43 L38.35 41.35 L34.88 47.5 L30.66 51.53 L27.53 51.64 L22.93 47.12 L12.73 34.47 L3.38 20.3 L1.82 15.05 L2.47 3.71" stroke="none" stroke-width="0" fill="#ced4da" fill-rule="evenodd"></path><path d="M0 0 C2.64 0.26, 9.72 -0.56, 15.81 1.57 C21.91 3.7, 32.53 8.24, 36.57 12.77 C40.61 17.31, 39.74 24.02, 40.04 28.79 C40.33 33.55, 39.91 37.56, 38.35 41.35 C36.79 45.14, 33.23 50.57, 30.66 51.53 C28.09 52.5, 27.47 52.33, 22.93 47.12 C18.38 41.92, 6.79 27.54, 3.38 20.3 C-0.03 13.07, 2.62 6.48, 2.47 3.71 M0 0 C2.64 0.26, 9.72 -0.56, 15.81 1.57 C21.91 3.7, 32.53 8.24, 36.57 12.77 C40.61 17.31, 39.74 24.02, 40.04 28.79 C40.33 33.55, 39.91 37.56, 38.35 41.35 C36.79 45.14, 33.23 50.57, 30.66 51.53 C28.09 52.5, 27.47 52.33, 22.93 47.12 C18.38 41.92, 6.79 27.54, 3.38 20.3 C-0.03 13.07, 2.62 6.48, 2.47 3.71" stroke="#495057" stroke-width="2" fill="none"></path></g></g><mask></mask><g stroke-linecap="round"><g transform="translate(27.591874304005614 141.79113286969374) rotate(0 23.935218500353926 1.0837497832572467)" fill-rule="evenodd"><path d="M0 0 L0.13 5.97 L1.16 9.94 L4.31 13.76 L10.96 17.89 L29.51 26.28 L36.67 28.29 L40.93 28.17 L43.58 26.52 L46.49 19.51 L47.86 5.83 L46.87 -7.86 L45.62 -11.37 L43.87 -13.42 L32.44 -19.37 L18.9 -24.74 L13.34 -26.08 L6.16 -25.52 L1.8 -21.15 L0.63 -16.51 L0 0" stroke="none" stroke-width="0" fill="#ced4da" fill-rule="evenodd"></path><path d="M0 0 C0.72 2.29, -1.8 9.05, 4.31 13.76 C10.42 18.48, 29.64 27.33, 36.67 28.29 C43.7 29.25, 44.79 25.53, 46.49 19.51 C48.19 13.48, 48.32 -1.82, 46.87 -7.86 C45.42 -13.9, 43.36 -13.7, 37.77 -16.74 C32.18 -19.77, 19.34 -25.34, 13.34 -26.08 C7.35 -26.82, 4.03 -25.5, 1.8 -21.15 C-0.42 -16.81, 0.3 -3.53, 0 0 M0 0 C0.72 2.29, -1.8 9.05, 4.31 13.76 C10.42 18.48, 29.64 27.33, 36.67 28.29 C43.7 29.25, 44.79 25.53, 46.49 19.51 C48.19 13.48, 48.32 -1.82, 46.87 -7.86 C45.42 -13.9, 43.36 -13.7, 37.77 -16.74 C32.18 -19.77, 19.34 -25.34, 13.34 -26.08 C7.35 -26.82, 4.03 -25.5, 1.8 -21.15 C-0.42 -16.81, 0.3 -3.53, 0 0" stroke="#495057" stroke-width="2" fill="none"></path></g></g><mask></mask><g stroke-linecap="round"><g transform="translate(30.77369248582363 141.34575492446044) rotate(0 20.42976942490759 0.9579109377231418)" fill-rule="evenodd"><path d="M0 0 L1.08 8.37 L3.62 11.57 L16.04 18.6 L29.29 23.59 L36.07 23.37 L39.65 18.69 L40.86 7.06 L39.77 -5.08 L37.05 -10.57 L31.74 -14.07 L15.88 -20.83 L11.21 -21.92 L5.18 -21.45 L1.52 -17.78 L0.53 -13.88 L0 0" stroke="none" stroke-width="0" fill="#343a40" fill-rule="evenodd"></path><path d="M0 0 C0.6 1.93, -1.26 7.63, 3.62 11.57 C8.51 15.5, 23.29 22.4, 29.29 23.59 C35.3 24.77, 37.9 23.46, 39.65 18.69 C41.39 13.91, 41.09 0.38, 39.77 -5.08 C38.46 -10.53, 36.5 -11.26, 31.74 -14.07 C26.98 -16.87, 16.25 -21.3, 11.21 -21.92 C6.17 -22.54, 3.38 -21.43, 1.52 -17.78 C-0.35 -14.12, 0.25 -2.96, 0 0 M0 0 C0.6 1.93, -1.26 7.63, 3.62 11.57 C8.51 15.5, 23.29 22.4, 29.29 23.59 C35.3 24.77, 37.9 23.46, 39.65 18.69 C41.39 13.91, 41.09 0.38, 39.77 -5.08 C38.46 -10.53, 36.5 -11.26, 31.74 -14.07 C26.98 -16.87, 16.25 -21.3, 11.21 -21.92 C6.17 -22.54, 3.38 -21.43, 1.52 -17.78 C-0.35 -14.12, 0.25 -2.96, 0 0" stroke="#495057" stroke-width="2" fill="none"></path></g></g><mask></mask><g stroke-linecap="round"><g transform="translate(10 168.9308208663811) rotate(0 26.725855238896884 7.1870886605131545)" fill-rule="evenodd"><path d="M0 0 L0.11 2.94 L39.14 25.66 L52.95 15.72 L53.45 11.24 L14.74 -11.29 L0 0" stroke="none" stroke-width="0" fill="#ced4da" fill-rule="evenodd"></path><path d="M0 0 C0.04 0.93, 0.07 1.85, 0.11 2.94 M0 0 C0.04 0.95, 0.07 1.9, 0.11 2.94 M0.11 2.94 C12.82 10.34, 25.53 17.74, 39.14 25.66 M0.11 2.94 C8.29 7.7, 16.46 12.46, 39.14 25.66 M39.14 25.66 C44.15 22.06, 49.16 18.45, 52.95 15.72 M39.14 25.66 C43.25 22.7, 47.36 19.75, 52.95 15.72 M52.95 15.72 C53.09 14.47, 53.23 13.22, 53.45 11.24 M52.95 15.72 C53.08 14.58, 53.21 13.44, 53.45 11.24 M53.45 11.24 C40.33 3.61, 27.21 -4.03, 14.74 -11.29 M53.45 11.24 C38.69 2.65, 23.92 -5.94, 14.74 -11.29 M14.74 -11.29 C11.35 -8.69, 7.96 -6.1, 0 0 M14.74 -11.29 C8.87 -6.8, 3.01 -2.3, 0 0 M0 0 C0 0, 0 0, 0 0 M0 0 C0 0, 0 0, 0 0" stroke="#495057" stroke-width="2" fill="none"></path></g></g><mask></mask><g stroke-linecap="round"><g transform="translate(10.576134294698932 169.47786074906804) rotate(0 26.36520403704219 11.218710673167152)"><path d="M0 0 C14.33 8.37, 28.67 16.73, 38.44 22.44 M0 0 C9.4 5.49, 18.81 10.98, 38.44 22.44 M38.44 22.44 C41.42 19.94, 44.41 17.43, 52.73 10.45 M38.44 22.44 C43.81 17.94, 49.17 13.43, 52.73 10.45" stroke="#495057" stroke-width="1" fill="none"></path></g></g><mask></mask><g stroke-linecap="round"><g transform="translate(49.15132842552157 195.0591190398432) rotate(0 -0.015662916919268355 -1.4976823036322457)"><path d="M0 0 C-0.01 -0.64, -0.01 -1.28, -0.03 -3 M0 0 C-0.01 -0.87, -0.02 -1.73, -0.03 -3" stroke="#495057" stroke-width="1" fill="none"></path></g></g><mask></mask><g stroke-linecap="round"><g transform="translate(25.00582525511072 160.9645245216339) rotate(0 4.9187904235463975 10.073473281810948)" fill-rule="evenodd"><path d="M0 0 L-10.46 8.17 L10.57 20.15 L20.3 11.43 L0 0" stroke="none" stroke-width="0" fill="#495057" fill-rule="evenodd"></path><path d="M0 0 C-2.45 1.91, -4.89 3.82, -10.46 8.17 M0 0 C-2.8 2.19, -5.6 4.38, -10.46 8.17 M-10.46 8.17 C-6.11 10.64, -1.75 13.12, 10.57 20.15 M-10.46 8.17 C-3.67 12.04, 3.13 15.91, 10.57 20.15 M10.57 20.15 C13.5 17.52, 16.43 14.9, 20.3 11.43 M10.57 20.15 C13.62 17.42, 16.66 14.69, 20.3 11.43 M20.3 11.43 C14.81 8.34, 9.33 5.26, 0 0 M20.3 11.43 C13.37 7.53, 6.45 3.63, 0 0 M0 0 C0 0, 0 0, 0 0 M0 0 C0 0, 0 0, 0 0" stroke="#495057" stroke-width="1" fill="none"></path></g></g><mask></mask><g stroke-linecap="round"><g transform="translate(46.98095968009875 173.69637462539737) rotate(0 0.4069587940120982 2.578481262354444)" fill-rule="evenodd"><path d="M0 0 L-3.28 3.01 L1.04 5.16 L4.09 2.31 L0 0" stroke="none" stroke-width="0" fill="#495057" fill-rule="evenodd"></path><path d="M0 0 C-1.12 1.03, -2.24 2.05, -3.28 3.01 M0 0 C-0.85 0.78, -1.71 1.57, -3.28 3.01 M-3.28 3.01 C-1.95 3.67, -0.61 4.34, 1.04 5.16 M-3.28 3.01 C-2.04 3.63, -0.8 4.25, 1.04 5.16 M1.04 5.16 C1.67 4.57, 2.3 3.98, 4.09 2.31 M1.04 5.16 C2.21 4.07, 3.37 2.99, 4.09 2.31 M4.09 2.31 C2.59 1.47, 1.09 0.62, 0 0 M4.09 2.31 C2.49 1.4, 0.88 0.49, 0 0 M0 0 C0 0, 0 0, 0 0 M0 0 C0 0, 0 0, 0 0" stroke="#495057" stroke-width="1" fill="none"></path></g></g><mask></mask><g stroke-linecap="round"><g transform="translate(53.26370486303858 177.03908949874682) rotate(0 -1.9084774475986706 6.135528242220289)" fill-rule="evenodd"><path d="M0 0 L-9.52 8.58 L-3.72 12.27 L5.71 3.72 L0 0" stroke="none" stroke-width="0" fill="#495057" fill-rule="evenodd"></path><path d="M0 0 C-3.68 3.32, -7.36 6.63, -9.52 8.58 M0 0 C-3.13 2.82, -6.26 5.64, -9.52 8.58 M-9.52 8.58 C-7.25 10.03, -4.98 11.47, -3.72 12.27 M-9.52 8.58 C-8.02 9.54, -6.51 10.5, -3.72 12.27 M-3.72 12.27 C-1.72 10.46, 0.28 8.64, 5.71 3.72 M-3.72 12.27 C-0.17 9.05, 3.39 5.82, 5.71 3.72 M5.71 3.72 C4.56 2.98, 3.42 2.23, 0 0 M5.71 3.72 C3.67 2.4, 1.64 1.07, 0 0 M0 0 C0 0, 0 0, 0 0 M0 0 C0 0, 0 0, 0 0" stroke="#495057" stroke-width="1" fill="none"></path></g></g><mask></mask><g transform="translate(374.9572962228219 184.87717652966882) rotate(0 50 12.5)"><text x="0" y="18" font-family="Virgil, Segoe UI Emoji" font-size="20px" fill="#000000" text-anchor="start" style="white-space: pre;" direction="ltr">DevServer</text></g><g stroke-linecap="round" transform="translate(406.32311622434486 112.4879823701088) rotate(0 18.634179998477293 34.78380266382396)"><path d="M0 0 C0 0, 0 0, 0 0 M0 0 C0 0, 0 0, 0 0 M0.13 12.04 C3.69 7.95, 7.25 3.85, 10.63 -0.03 M0.13 12.04 C4.27 7.28, 8.41 2.52, 10.63 -0.03 M0.27 24.08 C5.12 18.5, 9.97 12.92, 21.26 -0.07 M0.27 24.08 C7.48 15.78, 14.69 7.49, 21.26 -0.07 M-0.26 36.88 C7.26 28.22, 14.79 19.57, 31.89 -0.1 M-0.26 36.88 C7.41 28.06, 15.08 19.24, 31.89 -0.1 M-0.12 48.92 C9.82 37.49, 19.75 26.05, 39.9 2.88 M-0.12 48.92 C15.37 31.1, 30.86 13.28, 39.9 2.88 M0.01 60.96 C8.45 51.25, 16.89 41.53, 40.03 14.92 M0.01 60.96 C12.2 46.94, 24.39 32.92, 40.03 14.92 M1.45 71.49 C13.36 57.8, 25.26 44.11, 40.16 26.96 M1.45 71.49 C13.12 58.08, 24.78 44.66, 40.16 26.96 M12.09 71.46 C22.94 58.97, 33.8 46.48, 40.3 39 M12.09 71.46 C19.7 62.7, 27.31 53.95, 40.3 39 M22.72 71.42 C29.16 64, 35.61 56.59, 40.43 51.04 M22.72 71.42 C27.55 65.86, 32.38 60.31, 40.43 51.04 M33.35 71.39 C35 69.49, 36.65 67.58, 39.91 63.84 M33.35 71.39 C35.51 68.9, 37.68 66.4, 39.91 63.84 M0.27 69.8 C0.27 69.8, 0.27 69.8, 0.27 69.8 M0.27 69.8 C0.27 69.8, 0.27 69.8, 0.27 69.8 M12.31 69.67 C8.82 66.63, 5.32 63.59, 0.24 59.17 M12.31 69.67 C9.89 67.57, 7.48 65.47, 0.24 59.17 M24.35 69.54 C14.75 61.19, 5.15 52.84, 0.2 48.54 M24.35 69.54 C16.44 62.66, 8.52 55.78, 0.2 48.54 M36.39 69.4 C23.48 58.18, 10.57 46.96, 0.17 37.91 M36.39 69.4 C25.02 59.52, 13.65 49.64, 0.17 37.91 M42.4 64.02 C25.82 49.62, 9.25 35.21, 0.13 27.28 M42.4 64.02 C26.41 50.12, 10.42 36.23, 0.13 27.28 M42.36 53.39 C30 42.65, 17.64 31.9, 0.1 16.65 M42.36 53.39 C32.94 45.2, 23.51 37, 0.1 16.65 M42.33 42.76 C33.08 34.72, 23.84 26.69, 0.06 6.02 M42.33 42.76 C33.02 34.67, 23.72 26.59, 0.06 6.02 M42.29 32.13 C29.54 21.04, 16.78 9.96, 2.29 -2.64 M42.29 32.13 C26.34 18.26, 10.38 4.39, 2.29 -2.64 M42.26 21.5 C32.78 13.26, 23.31 5.03, 14.33 -2.77 M42.26 21.5 C35.74 15.83, 29.21 10.16, 14.33 -2.77 M42.22 10.87 C38.45 7.59, 34.68 4.31, 26.38 -2.91 M42.22 10.87 C38.56 7.69, 34.9 4.51, 26.38 -2.91" stroke="#ced4da" stroke-width="1" fill="none"></path><path d="M0 0 C14.64 0, 29.29 0, 37.27 0 M0 0 C13.12 0, 26.25 0, 37.27 0 M37.27 0 C37.27 16.8, 37.27 33.59, 37.27 69.57 M37.27 0 C37.27 17.84, 37.27 35.69, 37.27 69.57 M37.27 69.57 C29.6 69.57, 21.93 69.57, 0 69.57 M37.27 69.57 C25.5 69.57, 13.72 69.57, 0 69.57 M0 69.57 C0 42.28, 0 14.99, 0 0 M0 69.57 C0 54.71, 0 39.85, 0 0" stroke="#000000" stroke-width="2" fill="none"></path></g><g stroke-linecap="round"><g transform="translate(410.6710915573228 120.1839330360645) rotate(0 14.286204665499099 1.1368683772161603e-13)"><path d="M0 0 C4.76 0, 23.81 0, 28.57 0 M0 0 C4.76 0, 23.81 0, 28.57 0" stroke="#000000" stroke-width="2" fill="none"></path></g></g><mask></mask><g stroke-linecap="round"><g transform="translate(410.6710915573228 126.58773081367286) rotate(0 14.286204665499099 1.1368683772161603e-13)"><path d="M0 0 C4.76 0, 23.81 0, 28.57 0 M0 0 C4.76 0, 23.81 0, 28.57 0" stroke="#000000" stroke-width="2" fill="none"></path></g></g><mask></mask><g stroke-linecap="round"><g transform="translate(410.6710915573228 132.99152859128213) rotate(0 14.286204665499099 1.1368683772161603e-13)"><path d="M0 0 C4.76 0, 23.81 0, 28.57 0 M0 0 C4.76 0, 23.81 0, 28.57 0" stroke="#000000" stroke-width="2" fill="none"></path></g></g><mask></mask><g stroke-linecap="round"><g transform="translate(410.6710915573228 139.30938886889095) rotate(0 14.286204665499099 1.1368683772161603e-13)"><path d="M0 0 C4.76 0, 23.81 0, 28.57 0 M0 0 C4.76 0, 23.81 0, 28.57 0" stroke="#000000" stroke-width="2" fill="none"></path></g></g><mask></mask><g stroke-linecap="round" transform="translate(58.230222106752535 10) rotate(0 63.9419178660695 38.26851694988882)"><path d="M0.67 -0.65 C49.61 -0.07, 94.39 0.03, 128.39 -0.38 M0.21 0.41 C28.03 0.72, 57.66 0.85, 128.57 0.59 M127.46 -0.51 C125.38 24.64, 126.68 47.71, 126.19 78.02 M128.42 0.11 C128.53 20.71, 126.85 42.4, 128.57 76.93 M126.72 77.02 C82.02 76.6, 34.43 77.55, -0.84 75.61 M127.34 75.9 C87.98 77.31, 46.74 75.96, 0.49 76.12 M-1.58 77.56 C0.4 47.73, -1.07 20.52, 0.34 -0.54 M0.3 76.11 C0.49 56.36, -0.39 37.21, 0.73 0.46" stroke="#000000" stroke-width="1" fill="none"></path></g><g stroke-linecap="round"><g transform="translate(57.15462435585732 20.71653439224417) rotate(0 64.50965082866423 -0.10017564450390637)"><path d="M0.4 -0.39 C22.11 -0.39, 108.6 -0.13, 129.87 -0.06 M-0.85 -1.64 C20.83 -1.44, 107.58 0.95, 129.46 1.44" stroke="#000000" stroke-width="1" fill="none"></path></g></g><mask></mask><g stroke-linecap="round" transform="translate(62.71825757570741 14.27156980000882) rotate(0 2.5009765625 2.5009765625)"><path d="M5 2.5 C5 2.65, 4.99 2.79, 4.96 2.94 C4.94 3.08, 4.9 3.22, 4.85 3.36 C4.8 3.49, 4.74 3.63, 4.67 3.75 C4.59 3.88, 4.51 4, 4.42 4.11 C4.32 4.22, 4.22 4.32, 4.11 4.42 C4 4.51, 3.88 4.59, 3.75 4.67 C3.63 4.74, 3.49 4.8, 3.36 4.85 C3.22 4.9, 3.08 4.94, 2.94 4.96 C2.79 4.99, 2.65 5, 2.5 5 C2.36 5, 2.21 4.99, 2.07 4.96 C1.92 4.94, 1.78 4.9, 1.65 4.85 C1.51 4.8, 1.38 4.74, 1.25 4.67 C1.13 4.59, 1 4.51, 0.89 4.42 C0.78 4.32, 0.68 4.22, 0.59 4.11 C0.49 4, 0.41 3.88, 0.34 3.75 C0.26 3.63, 0.2 3.49, 0.15 3.36 C0.1 3.22, 0.06 3.08, 0.04 2.94 C0.01 2.79, 0 2.65, 0 2.5 C0 2.36, 0.01 2.21, 0.04 2.07 C0.06 1.92, 0.1 1.78, 0.15 1.65 C0.2 1.51, 0.26 1.38, 0.34 1.25 C0.41 1.13, 0.49 1, 0.59 0.89 C0.68 0.78, 0.78 0.68, 0.89 0.59 C1 0.49, 1.13 0.41, 1.25 0.34 C1.38 0.26, 1.51 0.2, 1.65 0.15 C1.78 0.1, 1.92 0.06, 2.07 0.04 C2.21 0.01, 2.36 0, 2.5 0 C2.65 0, 2.79 0.01, 2.94 0.04 C3.08 0.06, 3.22 0.1, 3.36 0.15 C3.49 0.2, 3.63 0.26, 3.75 0.34 C3.88 0.41, 4 0.49, 4.11 0.59 C4.22 0.68, 4.32 0.78, 4.42 0.89 C4.51 1, 4.59 1.13, 4.67 1.25 C4.74 1.38, 4.8 1.51, 4.85 1.65 C4.9 1.78, 4.94 1.92, 4.96 2.07 C4.99 2.21, 5 2.43, 5 2.5 C5.01 2.57, 5.01 2.43, 5 2.5" stroke="none" stroke-width="0" fill="#fa5252"></path><path d="M5 2.5 C5 2.65, 4.99 2.79, 4.96 2.94 C4.94 3.08, 4.9 3.22, 4.85 3.36 C4.8 3.49, 4.74 3.63, 4.67 3.75 C4.59 3.88, 4.51 4, 4.42 4.11 C4.32 4.22, 4.22 4.32, 4.11 4.42 C4 4.51, 3.88 4.59, 3.75 4.67 C3.63 4.74, 3.49 4.8, 3.36 4.85 C3.22 4.9, 3.08 4.94, 2.94 4.96 C2.79 4.99, 2.65 5, 2.5 5 C2.36 5, 2.21 4.99, 2.07 4.96 C1.92 4.94, 1.78 4.9, 1.65 4.85 C1.51 4.8, 1.38 4.74, 1.25 4.67 C1.13 4.59, 1 4.51, 0.89 4.42 C0.78 4.32, 0.68 4.22, 0.59 4.11 C0.49 4, 0.41 3.88, 0.34 3.75 C0.26 3.63, 0.2 3.49, 0.15 3.36 C0.1 3.22, 0.06 3.08, 0.04 2.94 C0.01 2.79, 0 2.65, 0 2.5 C0 2.36, 0.01 2.21, 0.04 2.07 C0.06 1.92, 0.1 1.78, 0.15 1.65 C0.2 1.51, 0.26 1.38, 0.34 1.25 C0.41 1.13, 0.49 1, 0.59 0.89 C0.68 0.78, 0.78 0.68, 0.89 0.59 C1 0.49, 1.13 0.41, 1.25 0.34 C1.38 0.26, 1.51 0.2, 1.65 0.15 C1.78 0.1, 1.92 0.06, 2.07 0.04 C2.21 0.01, 2.36 0, 2.5 0 C2.65 0, 2.79 0.01, 2.94 0.04 C3.08 0.06, 3.22 0.1, 3.36 0.15 C3.49 0.2, 3.63 0.26, 3.75 0.34 C3.88 0.41, 4 0.49, 4.11 0.59 C4.22 0.68, 4.32 0.78, 4.42 0.89 C4.51 1, 4.59 1.13, 4.67 1.25 C4.74 1.38, 4.8 1.51, 4.85 1.65 C4.9 1.78, 4.94 1.92, 4.96 2.07 C4.99 2.21, 5 2.43, 5 2.5 C5.01 2.57, 5.01 2.43, 5 2.5" stroke="#000000" stroke-width="1" fill="none"></path></g><g stroke-linecap="round" transform="translate(72.98095288820741 14.27156980000882) rotate(0 2.5009765625 2.5009765625)"><path d="M5 2.5 C5 2.65, 4.99 2.79, 4.96 2.94 C4.94 3.08, 4.9 3.22, 4.85 3.36 C4.8 3.49, 4.74 3.63, 4.67 3.75 C4.59 3.88, 4.51 4, 4.42 4.11 C4.32 4.22, 4.22 4.32, 4.11 4.42 C4 4.51, 3.88 4.59, 3.75 4.67 C3.63 4.74, 3.49 4.8, 3.36 4.85 C3.22 4.9, 3.08 4.94, 2.94 4.96 C2.79 4.99, 2.65 5, 2.5 5 C2.36 5, 2.21 4.99, 2.07 4.96 C1.92 4.94, 1.78 4.9, 1.65 4.85 C1.51 4.8, 1.38 4.74, 1.25 4.67 C1.13 4.59, 1 4.51, 0.89 4.42 C0.78 4.32, 0.68 4.22, 0.59 4.11 C0.49 4, 0.41 3.88, 0.34 3.75 C0.26 3.63, 0.2 3.49, 0.15 3.36 C0.1 3.22, 0.06 3.08, 0.04 2.94 C0.01 2.79, 0 2.65, 0 2.5 C0 2.36, 0.01 2.21, 0.04 2.07 C0.06 1.92, 0.1 1.78, 0.15 1.65 C0.2 1.51, 0.26 1.38, 0.34 1.25 C0.41 1.13, 0.49 1, 0.59 0.89 C0.68 0.78, 0.78 0.68, 0.89 0.59 C1 0.49, 1.13 0.41, 1.25 0.34 C1.38 0.26, 1.51 0.2, 1.65 0.15 C1.78 0.1, 1.92 0.06, 2.07 0.04 C2.21 0.01, 2.36 0, 2.5 0 C2.65 0, 2.79 0.01, 2.94 0.04 C3.08 0.06, 3.22 0.1, 3.36 0.15 C3.49 0.2, 3.63 0.26, 3.75 0.34 C3.88 0.41, 4 0.49, 4.11 0.59 C4.22 0.68, 4.32 0.78, 4.42 0.89 C4.51 1, 4.59 1.13, 4.67 1.25 C4.74 1.38, 4.8 1.51, 4.85 1.65 C4.9 1.78, 4.94 1.92, 4.96 2.07 C4.99 2.21, 5 2.43, 5 2.5 C5.01 2.57, 5.01 2.43, 5 2.5" stroke="none" stroke-width="0" fill="#fab005"></path><path d="M5 2.5 C5 2.65, 4.99 2.79, 4.96 2.94 C4.94 3.08, 4.9 3.22, 4.85 3.36 C4.8 3.49, 4.74 3.63, 4.67 3.75 C4.59 3.88, 4.51 4, 4.42 4.11 C4.32 4.22, 4.22 4.32, 4.11 4.42 C4 4.51, 3.88 4.59, 3.75 4.67 C3.63 4.74, 3.49 4.8, 3.36 4.85 C3.22 4.9, 3.08 4.94, 2.94 4.96 C2.79 4.99, 2.65 5, 2.5 5 C2.36 5, 2.21 4.99, 2.07 4.96 C1.92 4.94, 1.78 4.9, 1.65 4.85 C1.51 4.8, 1.38 4.74, 1.25 4.67 C1.13 4.59, 1 4.51, 0.89 4.42 C0.78 4.32, 0.68 4.22, 0.59 4.11 C0.49 4, 0.41 3.88, 0.34 3.75 C0.26 3.63, 0.2 3.49, 0.15 3.36 C0.1 3.22, 0.06 3.08, 0.04 2.94 C0.01 2.79, 0 2.65, 0 2.5 C0 2.36, 0.01 2.21, 0.04 2.07 C0.06 1.92, 0.1 1.78, 0.15 1.65 C0.2 1.51, 0.26 1.38, 0.34 1.25 C0.41 1.13, 0.49 1, 0.59 0.89 C0.68 0.78, 0.78 0.68, 0.89 0.59 C1 0.49, 1.13 0.41, 1.25 0.34 C1.38 0.26, 1.51 0.2, 1.65 0.15 C1.78 0.1, 1.92 0.06, 2.07 0.04 C2.21 0.01, 2.36 0, 2.5 0 C2.65 0, 2.79 0.01, 2.94 0.04 C3.08 0.06, 3.22 0.1, 3.36 0.15 C3.49 0.2, 3.63 0.26, 3.75 0.34 C3.88 0.41, 4 0.49, 4.11 0.59 C4.22 0.68, 4.32 0.78, 4.42 0.89 C4.51 1, 4.59 1.13, 4.67 1.25 C4.74 1.38, 4.8 1.51, 4.85 1.65 C4.9 1.78, 4.94 1.92, 4.96 2.07 C4.99 2.21, 5 2.43, 5 2.5 C5.01 2.57, 5.01 2.43, 5 2.5" stroke="#000000" stroke-width="1" fill="none"></path></g><g stroke-linecap="round" transform="translate(83.6943693545536 14.722290953855008) rotate(0 2.5009765625 2.5009765625)"><path d="M5 2.5 C5 2.65, 4.99 2.79, 4.96 2.94 C4.94 3.08, 4.9 3.22, 4.85 3.36 C4.8 3.49, 4.74 3.63, 4.67 3.75 C4.59 3.88, 4.51 4, 4.42 4.11 C4.32 4.22, 4.22 4.32, 4.11 4.42 C4 4.51, 3.88 4.59, 3.75 4.67 C3.63 4.74, 3.49 4.8, 3.36 4.85 C3.22 4.9, 3.08 4.94, 2.94 4.96 C2.79 4.99, 2.65 5, 2.5 5 C2.36 5, 2.21 4.99, 2.07 4.96 C1.92 4.94, 1.78 4.9, 1.65 4.85 C1.51 4.8, 1.38 4.74, 1.25 4.67 C1.13 4.59, 1 4.51, 0.89 4.42 C0.78 4.32, 0.68 4.22, 0.59 4.11 C0.49 4, 0.41 3.88, 0.34 3.75 C0.26 3.63, 0.2 3.49, 0.15 3.36 C0.1 3.22, 0.06 3.08, 0.04 2.94 C0.01 2.79, 0 2.65, 0 2.5 C0 2.36, 0.01 2.21, 0.04 2.07 C0.06 1.92, 0.1 1.78, 0.15 1.65 C0.2 1.51, 0.26 1.38, 0.34 1.25 C0.41 1.13, 0.49 1, 0.59 0.89 C0.68 0.78, 0.78 0.68, 0.89 0.59 C1 0.49, 1.13 0.41, 1.25 0.34 C1.38 0.26, 1.51 0.2, 1.65 0.15 C1.78 0.1, 1.92 0.06, 2.07 0.04 C2.21 0.01, 2.36 0, 2.5 0 C2.65 0, 2.79 0.01, 2.94 0.04 C3.08 0.06, 3.22 0.1, 3.36 0.15 C3.49 0.2, 3.63 0.26, 3.75 0.34 C3.88 0.41, 4 0.49, 4.11 0.59 C4.22 0.68, 4.32 0.78, 4.42 0.89 C4.51 1, 4.59 1.13, 4.67 1.25 C4.74 1.38, 4.8 1.51, 4.85 1.65 C4.9 1.78, 4.94 1.92, 4.96 2.07 C4.99 2.21, 5 2.43, 5 2.5 C5.01 2.57, 5.01 2.43, 5 2.5" stroke="none" stroke-width="0" fill="#40c057"></path><path d="M5 2.5 C5 2.65, 4.99 2.79, 4.96 2.94 C4.94 3.08, 4.9 3.22, 4.85 3.36 C4.8 3.49, 4.74 3.63, 4.67 3.75 C4.59 3.88, 4.51 4, 4.42 4.11 C4.32 4.22, 4.22 4.32, 4.11 4.42 C4 4.51, 3.88 4.59, 3.75 4.67 C3.63 4.74, 3.49 4.8, 3.36 4.85 C3.22 4.9, 3.08 4.94, 2.94 4.96 C2.79 4.99, 2.65 5, 2.5 5 C2.36 5, 2.21 4.99, 2.07 4.96 C1.92 4.94, 1.78 4.9, 1.65 4.85 C1.51 4.8, 1.38 4.74, 1.25 4.67 C1.13 4.59, 1 4.51, 0.89 4.42 C0.78 4.32, 0.68 4.22, 0.59 4.11 C0.49 4, 0.41 3.88, 0.34 3.75 C0.26 3.63, 0.2 3.49, 0.15 3.36 C0.1 3.22, 0.06 3.08, 0.04 2.94 C0.01 2.79, 0 2.65, 0 2.5 C0 2.36, 0.01 2.21, 0.04 2.07 C0.06 1.92, 0.1 1.78, 0.15 1.65 C0.2 1.51, 0.26 1.38, 0.34 1.25 C0.41 1.13, 0.49 1, 0.59 0.89 C0.68 0.78, 0.78 0.68, 0.89 0.59 C1 0.49, 1.13 0.41, 1.25 0.34 C1.38 0.26, 1.51 0.2, 1.65 0.15 C1.78 0.1, 1.92 0.06, 2.07 0.04 C2.21 0.01, 2.36 0, 2.5 0 C2.65 0, 2.79 0.01, 2.94 0.04 C3.08 0.06, 3.22 0.1, 3.36 0.15 C3.49 0.2, 3.63 0.26, 3.75 0.34 C3.88 0.41, 4 0.49, 4.11 0.59 C4.22 0.68, 4.32 0.78, 4.42 0.89 C4.51 1, 4.59 1.13, 4.67 1.25 C4.74 1.38, 4.8 1.51, 4.85 1.65 C4.9 1.78, 4.94 1.92, 4.96 2.07 C4.99 2.21, 5 2.43, 5 2.5 C5.01 2.57, 5.01 2.43, 5 2.5" stroke="#000000" stroke-width="1" fill="none"></path></g><g stroke-opacity="0.9" fill-opacity="0.9" stroke-linecap="round" transform="translate(99.72143034418082 30.77465983187085) rotate(0 21.360101269687902 21.36010126968786)"><path d="M16.91 -0.33 C21.06 -1.36, 27.88 0.2, 31.93 2.34 C35.97 4.47, 39.43 8.17, 41.2 12.48 C42.96 16.78, 43.98 23.74, 42.52 28.16 C41.05 32.58, 36.51 36.74, 32.38 39 C28.26 41.27, 22.21 42.4, 17.78 41.76 C13.34 41.13, 8.72 38.64, 5.77 35.21 C2.82 31.77, 0.39 25.8, 0.05 21.16 C-0.29 16.52, 0.27 10.81, 3.71 7.37 C7.15 3.92, 17.51 1.81, 20.71 0.5 C23.91 -0.8, 23.08 -0.57, 22.93 -0.46 M24.11 1.1 C28.39 1.85, 35.53 4.53, 38.69 8.06 C41.86 11.59, 43.38 17.99, 43.11 22.28 C42.84 26.57, 40.05 30.27, 37.07 33.78 C34.09 37.29, 29.64 42.15, 25.22 43.34 C20.81 44.53, 14.57 43.54, 10.59 40.93 C6.61 38.32, 2.73 32.04, 1.33 27.69 C-0.06 23.34, 0.75 19.01, 2.2 14.82 C3.65 10.63, 6 4.97, 10.02 2.54 C14.04 0.12, 23.61 0.42, 26.33 0.29 C29.06 0.15, 26.39 1.33, 26.37 1.73" stroke="none" stroke-width="0" fill="#04aaf7"></path><path d="M23.79 -0.69 C28.21 -0.23, 34.23 3.82, 37.24 7.25 C40.25 10.69, 41.69 15.47, 41.88 19.93 C42.06 24.4, 40.84 30.22, 38.33 34.03 C35.81 37.83, 31.23 41.88, 26.78 42.78 C22.34 43.69, 15.7 41.69, 11.66 39.46 C7.63 37.23, 4.39 33.65, 2.56 29.43 C0.74 25.2, -0.6 18.51, 0.7 14.13 C2 9.75, 6.06 5.55, 10.37 3.15 C14.68 0.74, 23.48 0.01, 26.57 -0.29 C29.66 -0.59, 29.12 0.94, 28.9 1.35 M26.01 -0.26 C30.16 0.55, 35.53 6.15, 38.4 10.24 C41.27 14.34, 43.51 19.74, 43.22 24.31 C42.94 28.89, 40.19 34.58, 36.69 37.7 C33.2 40.81, 26.75 42.94, 22.23 43.01 C17.71 43.08, 13.2 40.8, 9.59 38.1 C5.98 35.4, 1.92 31.23, 0.56 26.8 C-0.8 22.37, -0.6 15.65, 1.43 11.53 C3.45 7.41, 8.44 4.02, 12.71 2.09 C16.98 0.16, 24.84 -0.1, 27.04 -0.06 C29.24 -0.03, 25.85 1.79, 25.93 2.31" stroke="#000000" stroke-width="1" fill="none"></path></g><g stroke-linecap="round"><g transform="translate(126.79959440615653 46.999011896328454) rotate(0 -3.4640896553596576 6.480451691366916)" fill-rule="evenodd"><path d="M0 0 L-1.83 -0.41 L-7.57 -6.27 L-9.75 -6.1 L-11.36 -4.35 L-12.61 2.37 L-11.27 6.74 L-17.42 8.89 L-18 11.42 L-17.2 13.64 L-15.01 14.04 L-12.38 13.35 L-8.7 9.48 L-3.62 17.87 L-1.49 19.38 L-0.42 18.17 L-3.78 4.8 L-1.52 3.64 L1.39 4.35 L3.16 5.87 L6.21 6.29 L9.24 5.87 L10.81 3.22 L10.8 0.63 L4.22 1.11 L5.49 -5.76 L4.23 -6.26 L2.47 -5.35 L-0.24 -0.92 L0 0" stroke="none" stroke-width="0" fill="#40c057" fill-rule="evenodd"></path><path d="M0 0 C-0.31 -0.07, -0.57 0.63, -1.83 -0.41 C-3.09 -1.46, -5.98 -5.62, -7.57 -6.27 C-9.16 -6.93, -10.52 -5.79, -11.36 -4.35 C-12.2 -2.91, -12.63 0.53, -12.61 2.37 C-12.6 4.22, -10.47 5.65, -11.27 6.74 C-12.07 7.83, -16.44 7.74, -17.42 8.89 C-18.41 10.04, -18.04 12.9, -17.2 13.64 C-16.36 14.39, -13.8 14.04, -12.38 13.35 C-10.96 12.66, -10.16 8.72, -8.7 9.48 C-7.24 10.23, -5 16.42, -3.62 17.87 C-2.24 19.32, -0.39 20.35, -0.42 18.17 C-0.44 15.99, -4.08 7.1, -3.78 4.8 C-3.48 2.5, 0.23 4.17, 1.39 4.35 C2.54 4.53, 1.85 5.61, 3.16 5.87 C4.47 6.12, 7.96 6.74, 9.24 5.87 C10.51 5, 11.64 1.43, 10.8 0.63 C9.97 -0.16, 5.11 2.18, 4.22 1.11 C3.34 0.04, 5.78 -4.68, 5.49 -5.76 C5.19 -6.84, 3.43 -6.15, 2.47 -5.35 C1.52 -4.54, 0.17 -1.81, -0.24 -0.92 C-0.65 -0.03, -0.04 -0.15, 0 0 M0 0 C-0.31 -0.07, -0.57 0.63, -1.83 -0.41 C-3.09 -1.46, -5.98 -5.62, -7.57 -6.27 C-9.16 -6.93, -10.52 -5.79, -11.36 -4.35 C-12.2 -2.91, -12.63 0.53, -12.61 2.37 C-12.6 4.22, -10.47 5.65, -11.27 6.74 C-12.07 7.83, -16.44 7.74, -17.42 8.89 C-18.41 10.04, -18.04 12.9, -17.2 13.64 C-16.36 14.39, -13.8 14.04, -12.38 13.35 C-10.96 12.66, -10.16 8.72, -8.7 9.48 C-7.24 10.23, -5 16.42, -3.62 17.87 C-2.24 19.32, -0.39 20.35, -0.42 18.17 C-0.44 15.99, -4.08 7.1, -3.78 4.8 C-3.48 2.5, 0.23 4.17, 1.39 4.35 C2.54 4.53, 1.85 5.61, 3.16 5.87 C4.47 6.12, 7.96 6.74, 9.24 5.87 C10.51 5, 11.64 1.43, 10.8 0.63 C9.97 -0.16, 5.11 2.18, 4.22 1.11 C3.34 0.04, 5.78 -4.68, 5.49 -5.76 C5.19 -6.84, 3.43 -6.15, 2.47 -5.35 C1.52 -4.54, 0.17 -1.81, -0.24 -0.92 C-0.65 -0.03, -0.04 -0.15, 0 0" stroke="#087f5b" stroke-width="1" fill="none"></path></g></g><mask></mask><g stroke-linecap="round"><g stroke-opacity="0.9" fill-opacity="0.9" transform="translate(100.78049281820836 51.737533395051855) rotate(0 21.223234184175112 -0.1494173577893534)"><path d="M0.3 -0.23 C7.31 -0.27, 34.41 -0.37, 41.2 -0.29 M-1 -1.39 C6.46 -1.26, 36.04 0.58, 43.45 1.09" stroke="#000000" stroke-width="1" fill="none"></path></g></g><mask></mask><g stroke-linecap="round"><g stroke-opacity="0.9" fill-opacity="0.9" transform="translate(105.8758218479827 36.3030044680857) rotate(0 14.659303301924297 2.6276150615775435)"><path d="M0 0 C0.13 0.38, 0.09 1.58, 0.77 2.28 C1.46 2.97, 2.81 3.68, 4.1 4.19 C5.4 4.7, 6.64 5.13, 8.54 5.34 C10.43 5.55, 12.97 5.55, 15.48 5.45 C17.99 5.34, 21.44 5.28, 23.58 4.71 C25.72 4.14, 27.36 2.86, 28.32 2.03 C29.27 1.2, 29.15 0.12, 29.32 -0.26 M0 0 C0.13 0.38, 0.09 1.58, 0.77 2.28 C1.46 2.97, 2.81 3.68, 4.1 4.19 C5.4 4.7, 6.64 5.13, 8.54 5.34 C10.43 5.55, 12.97 5.55, 15.48 5.45 C17.99 5.34, 21.44 5.28, 23.58 4.71 C25.72 4.14, 27.36 2.86, 28.32 2.03 C29.27 1.2, 29.15 0.12, 29.32 -0.26" stroke="#000000" stroke-width="1" fill="none"></path></g></g><mask></mask><g stroke-opacity="0.9" fill-opacity="0.9" stroke-linecap="round" transform="translate(113.94973777190216 29.392130202278167) rotate(0 7.764217176558077 22.41115194065471)"><path d="M3.7 1.66 C5.06 -0.61, 7.92 -0.88, 9.77 0.55 C11.63 1.98, 13.88 6.42, 14.84 10.26 C15.81 14.1, 15.68 18.95, 15.56 23.6 C15.44 28.25, 15.35 34.77, 14.12 38.14 C12.88 41.51, 9.85 43.46, 8.14 43.84 C6.43 44.22, 5.11 43.2, 3.86 40.43 C2.61 37.67, 1.03 31.87, 0.63 27.24 C0.24 22.6, 0.81 17.01, 1.49 12.61 C2.16 8.22, 3.87 2.76, 4.67 0.87 C5.48 -1.01, 6.05 0.98, 6.33 1.3 M5.78 2.24 C7.37 0.48, 9.5 0.99, 10.81 2.58 C12.12 4.16, 12.8 7.89, 13.66 11.77 C14.52 15.64, 16.16 21.18, 15.97 25.84 C15.79 30.51, 14.04 36.71, 12.56 39.76 C11.07 42.8, 8.65 44.16, 7.06 44.13 C5.46 44.1, 4.13 42.72, 2.98 39.57 C1.83 36.43, 0.62 29.83, 0.14 25.25 C-0.34 20.68, -0.91 16.1, 0.12 12.14 C1.15 8.19, 5.59 3.15, 6.29 1.53 C6.99 -0.09, 4.57 1.93, 4.32 2.43" stroke="#000000" stroke-width="1" fill="none"></path></g><g stroke-linecap="round"><g stroke-opacity="0.9" fill-opacity="0.9" transform="translate(107.3917733576086 68.04009652652661) rotate(0 14.659303301924297 -2.7126663098105297)"><path d="M0 0 C0.68 -0.72, 2.68 -3.4, 4.1 -4.32 C5.53 -5.24, 6.64 -5.3, 8.54 -5.52 C10.43 -5.73, 12.97 -5.73, 15.48 -5.63 C17.99 -5.52, 21.44 -5.45, 23.58 -4.86 C25.72 -4.28, 27.36 -2.95, 28.32 -2.1 C29.27 -1.24, 29.15 -0.12, 29.32 0.27 M0 0 C0.68 -0.72, 2.68 -3.4, 4.1 -4.32 C5.53 -5.24, 6.64 -5.3, 8.54 -5.52 C10.43 -5.73, 12.97 -5.73, 15.48 -5.63 C17.99 -5.52, 21.44 -5.45, 23.58 -4.86 C25.72 -4.28, 27.36 -2.95, 28.32 -2.1 C29.27 -1.24, 29.15 -0.12, 29.32 0.27" stroke="#000000" stroke-width="1" fill="none"></path></g></g><mask></mask><g mask="url(#mask-vq7Qc82MjTYW2NhPCh2g8)" stroke-linecap="round"><g transform="translate(329.82419891694053 161.8914403993445) rotate(0 -118.70320923680299 7.143008410543715)"><path d="M-1.73 -0.99 C-23.56 3.2, -48.86 7.36, -117.67 15.28 M0.02 -0.31 C-34.43 3.92, -70.7 6.55, -118.08 13.2 M-119.58 14.91 C-160.43 8.91, -202.34 6.01, -237.43 1.39 M-119.35 13.51 C-148.1 10.89, -179.95 6.39, -236.7 0.94" stroke="#000000" stroke-width="1" fill="none"></path></g><g transform="translate(329.82419891694053 161.8914403993445) rotate(0 -118.70320923680299 7.143008410543715)"><path d="M-209.34 -7.37 C-213.28 -4.57, -220.66 -1.73, -235.92 2.32 M-207.59 -6.69 C-215.62 -3.71, -225.51 -3.02, -236.33 0.24" stroke="#000000" stroke-width="1" fill="none"></path></g><g transform="translate(329.82419891694053 161.8914403993445) rotate(0 -118.70320923680299 7.143008410543715)"><path d="M-211.44 13.05 C-215.01 11.74, -221.98 10.5, -235.92 2.32 M-209.69 13.72 C-216.99 10.7, -226.26 5.36, -236.33 0.24" stroke="#000000" stroke-width="1" fill="none"></path></g></g><mask id="mask-vq7Qc82MjTYW2NhPCh2g8"><rect x="0" y="0" fill="#fff" width="666.1538171149525" height="275.79586069988886"></rect><rect x="151.38307747282192" y="163.29586069988886" fill="#000" width="120" height="25" opacity="1"></rect></mask><g transform="translate(151.38307747282192 163.29586069988883) rotate(0 59.73791220731562 5.738588109999384)"><text x="60" y="18" font-family="Virgil, Segoe UI Emoji" font-size="20px" fill="#000000" text-anchor="middle" style="white-space: pre;" direction="ltr">html, js, css</text></g><g mask="url(#mask-EjJQQi0wVJwfI57B2zeir)" stroke-linecap="round"><g transform="translate(94.32944921133344 130.6396106998888) rotate(0 117.40503710547455 -6.725590987599901)"><path d="M1.57 0.37 C35.39 -4.3, 75.03 -8.61, 116.1 -11.69 M-0.15 0.8 C28.54 -3.74, 57.34 -5.81, 116.6 -14.42 M118.2 -12.31 C152.36 -7.26, 188.56 -4.77, 234.96 0.97 M116.42 -13.41 C159.97 -8.62, 200.83 -4.69, 234.77 -0.48" stroke="#000000" stroke-width="1" fill="none"></path></g><g transform="translate(94.32944921133344 130.6396106998888) rotate(0 117.40503710547455 -6.725590987599901)"><path d="M207.15 6.84 C213.21 4.32, 225.02 2.09, 234.22 1.3 M205.44 7.27 C212.75 4.09, 220.22 3.61, 234.72 -1.44" stroke="#000000" stroke-width="1" fill="none"></path></g><g transform="translate(94.32944921133344 130.6396106998888) rotate(0 117.40503710547455 -6.725590987599901)"><path d="M209.52 -13.54 C215.02 -9.57, 226.08 -5.32, 234.22 1.3 M207.8 -13.12 C214.4 -11.33, 221.3 -6.84, 234.72 -1.44" stroke="#000000" stroke-width="1" fill="none"></path></g></g><mask id="mask-EjJQQi0wVJwfI57B2zeir"><rect x="0" y="0" fill="#fff" width="428.3479067552205" height="244.1005481998888"></rect><rect x="184.47682747282192" y="104.6786731998888" fill="#000" width="53" height="25" opacity="1"></rect></mask><g transform="translate(184.47682747282192 104.6786731998888) rotate(0 27.257658843986064 19.2353465124001)"><text x="26.5" y="18" font-family="Virgil, Segoe UI Emoji" font-size="20px" fill="#000000" text-anchor="middle" style="white-space: pre;" direction="ltr">fetch</text></g><g transform="translate(405.0432337228219 71.6200794498888) rotate(0 100 12.5)"><text x="0" y="18" font-family="Virgil, Segoe UI Emoji" font-size="20px" fill="#000000" text-anchor="start" style="white-space: pre;" direction="ltr">Serverless Functions</text></g><g stroke-linecap="round"><g transform="translate(531.1979920264264 119.988173668206) rotate(0 23.874229019194217 26.03233041623716)" fill-rule="evenodd"><path d="M1.27 0.93 L-0.96 52.73 L12.93 55.03 L23.68 55.73 L40.35 57.06 L47.66 51.65 L48.45 -1.71 L42.27 -3.72 L23.93 -4.84 L5.7 -3.73 L-0.88 1.53" stroke="none" stroke-width="0" fill="#228be6" fill-rule="evenodd"></path><path d="M0.64 -0.22 C0.83 7.71, 1.11 38.76, 0.97 47.35 C0.82 55.94, -0.47 50.37, -0.23 51.33 C0.01 52.29, 0.59 52.3, 2.4 53.13 C4.21 53.95, 6.74 55.6, 10.63 56.28 C14.52 56.96, 21.07 57.34, 25.74 57.21 C30.4 57.08, 35.15 56.31, 38.64 55.51 C42.13 54.71, 45.29 53.25, 46.68 52.42 C48.07 51.59, 46.81 51.49, 46.98 50.53 C47.16 49.57, 47.45 54.53, 47.74 46.66 C48.03 38.78, 48.68 11.24, 48.7 3.28 C48.73 -4.69, 48.64 -0.26, 47.89 -1.12 C47.15 -1.99, 45.94 -1.38, 44.23 -1.91 C42.53 -2.44, 41.23 -3.89, 37.67 -4.31 C34.11 -4.73, 27.14 -4.3, 22.88 -4.42 C18.62 -4.55, 15.46 -5.48, 12.11 -5.06 C8.76 -4.64, 4.96 -2.89, 2.78 -1.9 C0.61 -0.9, -0.37 0.43, -0.93 0.91 C-1.48 1.39, -0.7 1.17, -0.55 0.98 M-0.49 -1.38 C-0.37 6.23, 0.55 36.65, 0.44 45.6 C0.34 54.56, -1.48 50.99, -1.12 52.33 C-0.75 53.67, 0.32 52.91, 2.61 53.65 C4.9 54.38, 9.12 56.27, 12.62 56.73 C16.13 57.18, 19.25 56.85, 23.63 56.39 C28.02 55.94, 35.28 54.21, 38.95 54.01 C42.63 53.8, 44.09 55.46, 45.7 55.17 C47.31 54.88, 48.16 53.81, 48.63 52.26 C49.09 50.72, 48.94 53.93, 48.49 45.87 C48.04 37.82, 46.2 11.3, 45.91 3.93 C45.62 -3.45, 46.99 2.68, 46.74 1.62 C46.49 0.56, 46.05 -1.37, 44.41 -2.44 C42.76 -3.5, 40.41 -4.39, 36.85 -4.77 C33.3 -5.15, 27.56 -4.81, 23.07 -4.72 C18.57 -4.63, 13.42 -4.84, 9.89 -4.23 C6.37 -3.63, 3.4 -2.1, 1.92 -1.1 C0.43 -0.09, 1.05 1.3, 0.97 1.77 C0.89 2.25, 1.52 1.8, 1.43 1.75" stroke="#0a11d3" stroke-width="1" fill="none"></path></g></g><mask></mask><g stroke-linecap="round"><g transform="translate(531.5704873450184 155.37023081741756) rotate(0 23.518416015139337 2.4149397794631966)"><path d="M-0.22 0.81 C0.15 1.02, 0.93 1.38, 1.98 1.88 C3.03 2.39, 4.28 3.38, 6.09 3.83 C7.89 4.28, 9.61 4.34, 12.82 4.59 C16.04 4.84, 21.02 5.48, 25.37 5.34 C29.72 5.2, 35.5 4.32, 38.92 3.75 C42.35 3.19, 44.61 2.75, 45.91 1.97 C47.22 1.2, 46.62 -0.52, 46.77 -0.9 M-1.79 0.19 C-1.5 0.53, 0.27 2.48, 1.41 3.3 C2.54 4.12, 3.15 4.74, 5 5.11 C6.85 5.48, 9.33 5.37, 12.49 5.5 C15.65 5.62, 19.89 5.79, 23.95 5.88 C28.02 5.97, 33.16 6.91, 36.9 6.05 C40.64 5.18, 44.41 1.94, 46.4 0.67 C48.39 -0.6, 48.52 -1.19, 48.83 -1.58" stroke="#0a11d3" stroke-width="1" fill="none"></path></g></g><mask></mask><g stroke-linecap="round"><g transform="translate(530.9777664260462 137.4466692902407) rotate(0 24.458651842846848 2.631606160964452)"><path d="M0.81 0.72 C0.87 1, 0.06 1.16, 1.03 1.51 C2 1.85, 4.55 2.19, 6.63 2.78 C8.72 3.38, 10.4 4.62, 13.56 5.07 C16.71 5.52, 21.49 5.66, 25.55 5.49 C29.6 5.33, 34.41 4.86, 37.87 4.08 C41.33 3.29, 44.75 1.69, 46.3 0.8 C47.86 -0.09, 46.95 -1, 47.2 -1.28 M-0.22 0.05 C-0.39 0.5, -1.05 2.14, -0.04 2.72 C0.97 3.3, 3.56 2.93, 5.83 3.52 C8.11 4.1, 10.54 5.8, 13.6 6.23 C16.67 6.66, 19.99 6.66, 24.22 6.11 C28.44 5.55, 35.16 3.47, 38.95 2.87 C42.75 2.28, 45.23 2.77, 46.99 2.54 C48.75 2.31, 49.64 1.75, 49.5 1.5" stroke="#0a11d3" stroke-width="1" fill="none"></path></g></g><mask></mask><g stroke-linecap="round" transform="translate(530.3703696643604 115.63942648274625) rotate(0 23.749866951716285 4.8032319133990455)"><path d="M32.35 1.06 C36.77 1.38, 42.17 2.41, 44.59 3.11 C47.01 3.81, 47.78 4.34, 46.86 5.27 C45.94 6.19, 43.08 8.07, 39.05 8.65 C35.02 9.23, 28.01 8.7, 22.7 8.76 C17.38 8.81, 10.89 9.48, 7.16 9 C3.44 8.52, 0.97 7.1, 0.34 5.87 C-0.29 4.64, 0.59 2.51, 3.4 1.63 C6.2 0.75, 11.93 0.6, 17.16 0.58 C22.39 0.56, 31.54 1.35, 34.78 1.5 C38.01 1.66, 36.66 1.67, 36.55 1.53 M12.65 -0.87 C17.02 -1.32, 25.41 -1.68, 30.26 -1.14 C35.11 -0.6, 39.02 1.09, 41.75 2.37 C44.47 3.65, 46.88 5.8, 46.61 6.53 C46.35 7.26, 43.79 6.21, 40.14 6.75 C36.48 7.3, 29.77 9.67, 24.69 9.79 C19.61 9.91, 13.67 7.92, 9.67 7.48 C5.66 7.04, 1.7 8.15, 0.66 7.15 C-0.38 6.15, 1.16 2.5, 3.42 1.5 C5.68 0.5, 12.36 1.17, 14.23 1.14 C16.1 1.11, 14.55 1.59, 14.64 1.32" stroke="none" stroke-width="0" fill="#fff"></path><path d="M17.45 0.24 C22.1 0.15, 29.61 0.43, 34.17 0.82 C38.73 1.2, 42.73 1.82, 44.82 2.55 C46.91 3.27, 48.07 4.28, 46.72 5.17 C45.36 6.06, 40.9 7.25, 36.69 7.9 C32.49 8.54, 26.31 9.1, 21.48 9.06 C16.65 9.02, 11.2 8.42, 7.7 7.65 C4.2 6.87, 1.05 5.27, 0.48 4.41 C-0.09 3.55, 0.89 3.29, 4.3 2.49 C7.72 1.69, 17.62 -0.06, 20.96 -0.39 C24.29 -0.72, 24.14 0.47, 24.32 0.51 M32.12 -0.47 C37 -0.04, 42.56 1.06, 45.03 2.21 C47.51 3.35, 47.73 5.58, 46.97 6.4 C46.21 7.21, 44.23 6.34, 40.46 7.11 C36.68 7.89, 29.65 11.02, 24.3 11.05 C18.96 11.07, 12.48 8.01, 8.39 7.27 C4.3 6.54, 0.55 7.41, -0.24 6.64 C-1.03 5.87, 1.27 3.6, 3.64 2.65 C6 1.69, 9.53 1.26, 13.95 0.91 C18.38 0.56, 27.44 0.55, 30.19 0.55 C32.93 0.55, 30.41 0.93, 30.42 0.91" stroke="#0a11d3" stroke-width="1" fill="none"></path></g><g stroke-linecap="round" transform="translate(569.1229577093843 128.95755723409766) rotate(0 3.480770663858493 3.777701712326518)"><path d="M5.85 0.35 C6.51 0.69, 7.22 1.38, 7.29 2.25 C7.36 3.13, 6.58 4.86, 6.26 5.6 C5.94 6.34, 6.07 6.51, 5.38 6.71 C4.69 6.9, 2.77 6.83, 2.12 6.77 C1.48 6.72, 1.78 6.9, 1.49 6.39 C1.2 5.88, 0.62 4.4, 0.39 3.71 C0.16 3.01, -0.34 2.79, 0.11 2.24 C0.57 1.69, 2.04 0.55, 3.12 0.41 C4.21 0.27, 6.03 1.13, 6.64 1.41 C7.25 1.69, 7.03 2.3, 6.78 2.1 M1.78 0.42 C2.5 0.22, 3.22 -1.05, 4.12 -0.8 C5.01 -0.55, 6.51 0.98, 7.15 1.92 C7.8 2.87, 8.58 4.19, 7.98 4.87 C7.38 5.55, 4.43 5.66, 3.58 6 C2.72 6.35, 3.55 6.99, 2.86 6.96 C2.16 6.94, -0.29 6.22, -0.58 5.85 C-0.88 5.48, 1.06 5.43, 1.11 4.74 C1.15 4.05, -0.76 2.37, -0.31 1.71 C0.14 1.05, 3.09 1.03, 3.79 0.78 C4.49 0.52, 4.23 0.32, 3.89 0.19" stroke="none" stroke-width="0" fill="#fff"></path><path d="M3.47 0.23 C4.39 0.13, 5.47 -0.18, 6 0.3 C6.53 0.77, 6.7 2.3, 6.64 3.09 C6.58 3.88, 6.09 4.34, 5.63 5.03 C5.18 5.73, 4.53 6.73, 3.9 7.26 C3.27 7.79, 2.51 8.41, 1.85 8.22 C1.2 8.04, 0.42 7.01, -0.02 6.16 C-0.45 5.31, -1.02 4.03, -0.74 3.13 C-0.47 2.24, 0.98 1.33, 1.65 0.78 C2.31 0.22, 2.8 -0.21, 3.25 -0.22 C3.7 -0.22, 4.4 0.55, 4.35 0.76 M2.93 1.23 C3.83 0.96, 4.98 0.21, 5.8 0.67 C6.63 1.13, 7.99 3.19, 7.89 3.98 C7.78 4.76, 5.5 4.95, 5.18 5.37 C4.86 5.8, 6.7 6.34, 5.98 6.52 C5.25 6.7, 1.61 6.49, 0.82 6.48 C0.02 6.47, 1.32 7.17, 1.21 6.46 C1.1 5.75, 0.04 3.28, 0.15 2.21 C0.27 1.14, 1.27 0.46, 1.9 0.03 C2.53 -0.4, 3.56 -0.39, 3.95 -0.37 C4.33 -0.36, 4.32 0.07, 4.21 0.14" stroke="#0a11d3" stroke-width="1" fill="none"></path></g><g stroke-linecap="round" transform="translate(569.1229577093843 145.54165354398378) rotate(0 3.480770663858493 3.777701712326518)"><path d="M4.23 0.69 C4.94 0.62, 5.61 0.47, 6.17 1.04 C6.73 1.61, 7.66 3.37, 7.58 4.12 C7.5 4.87, 6.44 4.89, 5.69 5.56 C4.94 6.23, 3.77 7.86, 3.1 8.15 C2.42 8.44, 2.16 7.95, 1.63 7.29 C1.11 6.63, 0.04 4.96, -0.04 4.17 C-0.13 3.39, 0.72 3.05, 1.11 2.58 C1.5 2.11, 1.49 1.58, 2.29 1.37 C3.09 1.16, 5.17 1.36, 5.94 1.33 C6.7 1.29, 7.17 1.28, 6.9 1.18 M2.29 -0.89 C2.83 -1, 2.29 -0.19, 2.82 0.43 C3.35 1.04, 4.84 2.47, 5.46 2.82 C6.08 3.17, 6.62 1.91, 6.53 2.53 C6.43 3.15, 5.38 5.93, 4.87 6.56 C4.35 7.18, 3.99 6.02, 3.42 6.27 C2.85 6.52, 1.77 8.49, 1.43 8.05 C1.08 7.6, 1.46 4.45, 1.36 3.61 C1.26 2.76, 0.61 3.39, 0.82 2.99 C1.04 2.59, 2.46 1.84, 2.65 1.19 C2.85 0.54, 2.19 -0.79, 2.02 -0.92" stroke="none" stroke-width="0" fill="#fff"></path><path d="M2.16 0.75 C2.74 0.31, 3.07 -0.13, 3.77 -0.15 C4.47 -0.17, 5.91 0.07, 6.35 0.62 C6.79 1.17, 6.47 2.28, 6.41 3.15 C6.35 4.02, 6.25 5.21, 5.97 5.85 C5.69 6.49, 5.41 6.95, 4.74 7 C4.07 7.05, 2.74 6.43, 1.96 6.15 C1.18 5.87, 0.36 6.04, 0.05 5.32 C-0.25 4.61, -0.22 2.63, 0.11 1.85 C0.45 1.07, 1.52 1.03, 2.05 0.65 C2.58 0.26, 3.14 -0.49, 3.3 -0.49 M3.43 0.24 C3.82 0.19, 3.64 1.09, 4.26 1.15 C4.88 1.2, 6.78 -0.21, 7.15 0.56 C7.52 1.33, 6.87 4.99, 6.5 5.78 C6.13 6.56, 5.55 4.84, 4.93 5.27 C4.31 5.7, 3.23 8.11, 2.78 8.36 C2.33 8.62, 2.82 7.36, 2.25 6.81 C1.67 6.26, -0.26 5.83, -0.69 5.08 C-1.12 4.33, -0.76 3.01, -0.34 2.3 C0.08 1.6, 1.39 1.23, 1.83 0.85 C2.26 0.48, 2.27 0.2, 2.28 0.05" stroke="#0a11d3" stroke-width="1" fill="none"></path></g><g stroke-linecap="round" transform="translate(569.1229577093843 163.5663626918914) rotate(0 3.480770663858493 3.777701712326518)"><path d="M3.64 -0.11 C4.13 -0.12, 4.32 0.83, 4.86 1.25 C5.4 1.66, 6.72 1.85, 6.88 2.4 C7.05 2.94, 6.04 3.71, 5.83 4.52 C5.63 5.33, 6.13 6.79, 5.67 7.25 C5.21 7.71, 4.01 7.34, 3.07 7.28 C2.14 7.21, 0.51 7.42, 0.05 6.85 C-0.4 6.29, 0.04 4.75, 0.35 3.9 C0.66 3.05, 1.2 2.29, 1.93 1.77 C2.66 1.26, 4.29 1.18, 4.73 0.8 C5.17 0.43, 4.76 -0.26, 4.59 -0.48 M1.01 -1.22 C1.94 -1.72, 3.89 -1.01, 5.02 -0.56 C6.16 -0.11, 7.75 0.84, 7.82 1.48 C7.89 2.12, 5.78 2.51, 5.46 3.29 C5.14 4.08, 6.45 5.52, 5.9 6.2 C5.36 6.88, 2.8 7.12, 2.2 7.4 C1.61 7.67, 2.9 8.27, 2.33 7.86 C1.75 7.46, -1.04 5.83, -1.23 4.96 C-1.42 4.09, 0.44 3.4, 1.16 2.62 C1.88 1.85, 3.13 0.77, 3.09 0.31 C3.05 -0.15, 1.1 -0.42, 0.93 -0.14" stroke="none" stroke-width="0" fill="#fff"></path><path d="M3.29 -0.48 C3.93 -0.67, 4.59 0.19, 5.02 0.61 C5.45 1.02, 5.72 1.25, 5.86 2 C6.01 2.75, 6.07 4.11, 5.87 5.1 C5.67 6.09, 5.24 7.48, 4.64 7.94 C4.05 8.41, 3.06 8.2, 2.29 7.89 C1.51 7.58, 0.3 6.79, 0 6.07 C-0.31 5.34, 0.4 4.37, 0.47 3.54 C0.55 2.71, -0.07 1.56, 0.43 1.08 C0.93 0.6, 3.14 0.73, 3.49 0.67 C3.85 0.61, 2.61 0.87, 2.56 0.7 M4.79 -0.03 C5.73 0.13, 7.38 2.03, 7.52 2.73 C7.66 3.43, 5.72 3.63, 5.64 4.16 C5.56 4.7, 7.65 5.48, 7.05 5.91 C6.44 6.35, 2.85 6.5, 2 6.76 C1.15 7.02, 2.26 8.04, 1.94 7.49 C1.63 6.95, 0.24 4.6, 0.1 3.51 C-0.04 2.43, 0.65 1.61, 1.09 0.99 C1.53 0.37, 2.04 -0.09, 2.75 -0.2 C3.47 -0.31, 5.11 0.32, 5.4 0.34 C5.69 0.37, 4.73 -0.28, 4.5 -0.04" stroke="#0a11d3" stroke-width="1" fill="none"></path></g><g transform="translate(501.6330774728219 179.6903919498888) rotate(0 53.5 12.5)"><text x="0" y="18" font-family="Virgil, Segoe UI Emoji" font-size="20px" fill="#000000" text-anchor="start" style="white-space: pre;" direction="ltr">json-server</text></g><g stroke-linecap="round" transform="translate(348.1487024728219 60.233360699888806) rotate(0 148.18359375 81.451171875)"><path d="M32 0 M32 0 C106.99 0.42, 178.82 -2.2, 264.37 0 M32 0 C107.04 -0.4, 180.39 -1.67, 264.37 0 M264.37 0 C287.42 -0.94, 294.75 10.14, 296.37 32 M264.37 0 C287.55 0.38, 296.43 12.4, 296.37 32 M296.37 32 C295.6 61.07, 298.73 85.86, 296.37 130.9 M296.37 32 C295.75 69.7, 297.51 105.49, 296.37 130.9 M296.37 130.9 C297.9 153.2, 286.95 164.25, 264.37 162.9 M296.37 130.9 C294.88 153.59, 284.5 161.07, 264.37 162.9 M264.37 162.9 C203.23 161.41, 142.67 162.58, 32 162.9 M264.37 162.9 C212.86 163.05, 162.13 162.86, 32 162.9 M32 162.9 C9.26 161.75, 1.63 152.56, 0 130.9 M32 162.9 C9.58 160.92, 1.52 151.96, 0 130.9 M0 130.9 C1.87 110.64, -1.94 91.92, 0 32 M0 130.9 C-1.34 106.45, -0.58 83.07, 0 32 M0 32 C1.62 10.47, 10.07 -1.15, 32 0 M0 32 C0.78 8.85, 8.74 1.93, 32 0" stroke="#000000" stroke-width="1" fill="none"></path></g><g stroke-linecap="round"><g transform="translate(388.5418549143542 64.77632944988878) rotate(0 -1.7382925452643576 20.935677963567585)" fill-rule="evenodd"><path d="M-0.51 1.75 L-16.26 24.32 L-13.82 25.04 L-1.93 25.58 L-6.58 41.89 L3.12 28.45 L13.73 14.25 L9.56 11.51 L-1.23 12.86 L1.14 -1.14" stroke="none" stroke-width="0" fill="#fab005" fill-rule="evenodd"></path><path d="M-0.25 0.65 C-2.96 4.92, -15.34 21.46, -15.28 25.42 C-15.21 29.39, -1.37 21.64, 0.15 24.47 C1.68 27.3, -8.2 44.16, -6.13 42.4 C-4.06 40.64, 11.76 18.97, 12.57 13.91 C13.38 8.85, 0.76 14.39, -1.28 12.03 C-3.33 9.68, -0.06 1.62, 0.29 -0.21 M1.83 -0.05 C-1.1 3.86, -15.74 19.76, -16.08 23.48 C-16.41 27.21, -1.81 18.99, -0.18 22.32 C1.44 25.65, -8.25 44.79, -6.33 43.48 C-4.42 42.16, 10.76 19.32, 11.3 14.44 C11.83 9.56, -1.42 16.87, -3.13 14.19 C-4.83 11.5, 0.52 0.49, 1.09 -1.67" stroke="#000000" stroke-width="1" fill="none"></path></g></g><mask></mask><g stroke-linecap="round"><g transform="translate(454.5588587228219 140.0107044498888) rotate(0 34.849712137621964 0.02498000264168354)"><path d="M0.15 0.79 C11.97 0.58, 59.38 -0.47, 70.93 -0.74 M-1.23 0.17 C10.48 0.05, 58.1 0.43, 70.28 0.4" stroke="#000000" stroke-width="1" fill="none"></path></g><g transform="translate(454.5588587228219 140.0107044498888) rotate(0 34.849712137621964 0.02498000264168354)"><path d="M43.38 11.51 C49.22 5.92, 57.47 3.8, 70.55 0.07 M41.32 10.18 C47.93 7.99, 54.48 6.02, 70.78 0.27" stroke="#000000" stroke-width="1" fill="none"></path></g><g transform="translate(454.5588587228219 140.0107044498888) rotate(0 34.849712137621964 0.02498000264168354)"><path d="M43.44 -9.01 C49.36 -8.46, 57.58 -4.42, 70.55 0.07 M41.38 -10.34 C47.94 -7.67, 54.47 -4.78, 70.78 0.27" stroke="#000000" stroke-width="1" fill="none"></path></g></g><mask></mask><g stroke-linecap="round"><g transform="translate(525.8244837228219 159.2958606998888) rotate(0 -39.2593816498993 0.3880628999697251)"><path d="M-0.92 -0.73 C-14.28 -0.41, -66.36 0.8, -79.32 1.03 M0.8 1.5 C-12.24 1.58, -63.58 -0.07, -76.95 -0.55" stroke="#000000" stroke-width="1" fill="none"></path></g><g transform="translate(525.8244837228219 159.2958606998888) rotate(0 -39.2593816498993 0.3880628999697251)"><path d="M-49.65 -10.96 C-57.31 -6.62, -68.48 -3.88, -75.12 -0.99 M-47.49 -10.55 C-55.57 -6.37, -63.68 -4.18, -77.93 -0.16" stroke="#000000" stroke-width="1" fill="none"></path></g><g transform="translate(525.8244837228219 159.2958606998888) rotate(0 -39.2593816498993 0.3880628999697251)"><path d="M-50.33 9.55 C-57.59 6.32, -68.51 1.49, -75.12 -0.99 M-48.17 9.96 C-56.24 8.74, -64.17 5.54, -77.93 -0.16" stroke="#000000" stroke-width="1" fill="none"></path></g></g><mask></mask></svg>